{"title":"Formula 1 2011 Chine Practice 2","uid":6319910,"size":1811905715,"categoryP":"video","categoryS":"tv_shows","magnet":"?xt=urn:btih:12a91911328259748f731921180691b7ce69e3cc&amp;dn=Formula+1+2011+Chine+Practice+2&amp;tr=udp%3A%2F%2Ftracker.openbittorrent.com%3A80&amp;tr=udp%3A%2F%2Fopen.demonii.com%3A1337&amp;tr=udp%3A%2F%2Ftracker.coppersurfer.tk%3A6969&amp;tr=udp%3A%2F%2Fexodus.desync.com%3A6969","seeders":1,"leechers":0,"uploader":"jorrell0733","files":2,"time":1302916605,"description":"Formula One 2011 Season\n\nRace 3: Chinese Grand Prix, Shangha. Shanghai International Circuit\n\nRecord Source: BBC One Red Button Stream\nOriginal Format: MPEG TS Stream\nDate: Friday 15th April 2011\nTime: 07:00 to 08:30\n\nAfter several requests, I have now opted for the Matroska container format (mkv) for all sessions.\n\n\nChinese Grand Prix Practice Session 2\n\nF1 coverage of the 2nd Practice Session for the 3rd Race meeting of the\n2011 Formula One season, The Chinese Grand Prix, from the Shanghai International Circuit, Shanghai\n\n\nComplete name : F1 2011 Chinese Practice 2.mkv\nFormat : Matroska\nFile size : 1.69 GiB\nDuration : 1h 39mn\nOverall bit rate : 2 419 Kbps\nWriting application : HandBrake 0.9.5\nWriting library : libmkv 0.6.4.1\n\nVideo\nID : 1\nFormat : AVC\nFormat/Info : Advanced Video Codec\nFormat profile : &lt;a class=&quot;__cf_email__&quot; href=&quot;/cdn-cgi/l/email-protection&quot; data-cfemail=&quot;266e4f414e666a150816&quot;&gt;[email&amp;#160;protected]&lt;/a&gt;&lt;script cf-hash='f9e31' type=&quot;text/javascript&quot;&gt;\n/* &lt;![CDATA[ */!function(){try{var t=&quot;currentScript&quot;in document?document.currentScript:function(){for(var t=document.getElementsByTagName(&quot;script&quot;),e=t.length;e--;)if(t[e].getAttribute(&quot;cf-hash&quot;))return t[e]}();if(t&amp;&amp;t.previousSibling){var e,r,n,i,c=t.previousSibling,a=c.getAttribute(&quot;data-cfemail&quot;);if(a){for(e=&quot;&quot;,r=parseInt(a.substr(0,2),16),n=2;a.length-n;n+=2)i=parseInt(a.substr(n,2),16)^r,e+=String.fromCharCode(i);e=document.createTextNode(e),c.parentNode.replaceChild(e,c)}}}catch(u){}}();/* ]]&gt; */&lt;/script&gt;\nFormat settings, CABAC : Yes\nFormat settings, ReFrames : 4 frames\nFormat settings, GOP : M=4, N=32\nCodec ID : V_MPEG4/ISO/AVC\nDuration : 1h 39mn\nBit rate : 2 280 Kbps\nWidth : 544 pixels\nHeight : 576 pixels\nDisplay aspect ratio : 16:9\nFrame rate mode : Variable\nFrame rate : 25.000 fps\nColor space : YUV\nChroma subsampling : 4:2:0\nBit depth : 8 bits\nScan type : Progressive\nBits/(Pixel*Frame) : 0.291\nStream size : 1.56 GiB (93%)\nWriting library : x264 core 112\nEncoding settings : cabac=1 / ref=3 / deblock=1:0:0 / analyse=0x3:0x113 / me=hex / subme=7 / psy=1 / psy_rd=1.00:0.00 / mixed_ref=1 / me_range=16 / chroma_me=1 / trellis=1 / 8x8dct=1 / cqm=0 / deadzone=21,11 / fast_pskip=1 / chroma_qp_offset=-2 / threads=4 / sliced_threads=0 / nr=0 / decimate=1 / interlaced=0 / constrained_intra=0 / bframes=3 / b_pyramid=2 / b_adapt=1 / b_bias=0 / direct=1 / weightb=1 / open_gop=0 / weightp=2 / keyint=250 / keyint_min=25 / scenecut=40 / intra_refresh=0 / rc_lookahead=40 / rc=abr / mbtree=1 / bitrate=2280 / ratetol=1.0 / qcomp=0.60 / qpmin=3 / qpmax=51 / qpstep=4 / ip_ratio=1.40 / aq=1:1.00\nLanguage : English\nColor primaries : BT.601-6 525, BT.1358 525, BT.1700 NTSC, SMPTE 170M\nTransfer characteristics : BT.709-5, BT.1361\nMatrix coefficients : BT.601-6 525, BT.1358 525, BT.1700 NTSC, SMPTE 170M\n\nAudio\nID : 2\nFormat : AC-3\nFormat/Info : Audio Coding 3\nMode extension : CM (complete main)\nCodec ID : A_AC3\nDuration : 1h 39mn\nBit rate mode : Constant\nBit rate : 128 Kbps\nChannel(s) : 2 channels\nChannel positions : Front: L R\nSampling rate : 48.0 KHz\nBit depth : 16 bits\nCompression mode : Lossy\nStream size : 91.4 MiB (5%)\nLanguage : English\n\n\n\nEnjoy\n\nThe BlackKnight\n\nPractice Session 3 &amp; Qualifying will follow tomorrow...\n\nDRIVERS STANDINGS AFTER RACE 2\n\n1 Sebastian Vettel Ger Red Bull-Renault 50\n2 Jenson Button GB McLaren-Mercedes 26\n3 Lewis Hamilton GB McLaren-Mercedes 22\n4 Mark Webber Aus Red Bull-Renault 22\n5 Fernando Alonso Spa Ferrari 20\n6 Felipe Massa Brz Ferrari 16\n7 Nick Heidfeld Ger Renault 15\n8 Vitaly Petrov Rus Renault 15\n9 Kamui Kobayashi Jpn Sauber 6\n10 Sebastien Buemi Swi Toro Rosso-Ferrari 4\n11 Adrian Sutil Ger Force India-Mercedes 2\n12 Michael Schumacher Ger Mercedes GP 2\n13 Paul Di Resta GB Force India-Mercedes 2\n14 Jaime Alguersuari Spa Toro Rosso-Ferrari 0\n15 Nico Rosberg Ger Mercedes GP 0\n16 Jarno Trulli Ita Lotus-Renault 0\n17 Jerome d'Ambrosio Bel Virgin-Cosworth 0\n18 Heikki Kovalainen Fin Lotus-Renault 0\n19 Timo Glock Ger Virgin-Cosworth 0\n20 Rubens Barrichello Brz Williams-Cosworth 0\n21 Vitantonio Liuzzi Ita Hispania-Cosworth 0\n22 Pastor Maldonado Ven Williams-Cosworth 0\n23 Sergio Perez Mex Sauber 0\n24 Narain Karthikeyan Ind Hispania-Cosworth 0\n\n\nCONSTRUCTOS STANDINGS AFTER RACE 2\n\n1 Red Bull-Renault 72\n2 McLaren-Mercedes 48\n3 Ferrari 36\n4 Renault 30\n5 Sauber 6\n6 Toro Rosso-Ferrari 4\n7 Force India-Mercedes 4\n8 Mercedes GP 2\n9 Lotus-Renault 0\n10 Virgin-Cosworth 0\n11 Williams-Cosworth 0\n12 Hispania-Cosworth\n","torrent":{"xt":"urn:btih:12a91911328259748f731921180691b7ce69e3cc","amp;dn":"Formula+1+2011+Chine+Practice+2","amp;tr":["udp%3A%2F%2Ftracker.openbittorrent.com%3A80","udp%3A%2F%2Fopen.demonii.com%3A1337","udp%3A%2F%2Ftracker.coppersurfer.tk%3A6969","udp%3A%2F%2Fexodus.desync.com%3A6969"],"infoHash":"12a91911328259748f731921180691b7ce69e3cc","infoHashBuffer":{"type":"Buffer","data":[18,169,25,17,50,130,89,116,143,115,25,33,24,6,145,183,206,105,227,204]},"announce":[],"urlList":[]}}